<?xml version="1.0" standalone="no"?>
 <!DOCTYPE svg PUBLIC "-//W3C//DTD SVG 1.1//EN" 
 "http://www.w3.org/Graphics/SVG/1.1/DTD/svg11.dtd"> 
<svg
  xmlns:svg="http://www.w3.org/2000/svg"
  xmlns="http://www.w3.org/2000/svg"
  xmlns:xlink="http://www.w3.org/1999/xlink"
  xmlns:inkscape="http://www.inkscape.org/namespaces/inkscape"
  version="1.1"
  width="455" height="905.0000000000001" viewBox="102.4 95.4 18.2 36.2">
<title>SVG Image created as ground.svg date 2026-09-13T12:49:26 </title>
  <desc>Image generated by PCBNEW </desc><rect x="102.4" y="95.4" width="18.2" height="36.2" fill="#10161f"/>
<g style="fill:#000000; fill-opacity:1.0000;stroke:#000000; stroke-opacity:1.0000;
stroke-linecap:round; stroke-linejoin:round;"
 transform="translate(0 0) scale(1 1)">
</g>
<g style="fill:#7FC87F; fill-opacity:1.0000; stroke:none;">
<circle cx="107.5500" cy="104.8000" r="0.3000" /> 
<circle cx="115.4500" cy="108.7000" r="0.3000" /> 
<circle cx="116.2000" cy="112.7000" r="0.3000" /> 
<circle cx="115.6500" cy="122.0803" r="0.3000" /> 
<circle cx="117.6000" cy="107.9000" r="0.3000" /> 
<circle cx="106.2524" cy="102.4500" r="0.3000" /> 
<circle cx="117.2100" cy="100.6000" r="0.3000" /> 
<circle cx="116.2000" cy="114.8500" r="0.3000" /> 
<circle cx="105.4000" cy="108.0500" r="0.3000" /> 
<circle cx="109.3100" cy="97.8000" r="0.3000" /> 
<circle cx="112.5000" cy="100.6500" r="0.3000" /> 
<circle cx="112.8500" cy="97.8500" r="0.3000" /> 
<circle cx="110.2473" cy="102.0988" r="0.3000" /> 
<circle cx="115.0000" cy="119.3500" r="0.2500" /> 
<circle cx="110.0000" cy="103.1000" r="0.3000" /> 
<circle cx="115.3500" cy="105.8000" r="0.3000" /> 
<circle cx="111.8500" cy="97.8068" r="0.3000" /> 
<circle cx="105.2500" cy="109.9000" r="0.3000" /> 
<circle cx="105.3000" cy="105.6500" r="0.3000" /> 
<circle cx="106.7000" cy="104.6272" r="0.3000" /> 
<circle cx="104.6862" cy="96.5000" r="0.3000" /> 
<circle cx="117.1500" cy="118.7500" r="0.3000" /> 
<circle cx="114.9163" cy="121.7615" r="0.3000" /> 
<circle cx="115.3000" cy="116.0500" r="0.3000" /> 
<circle cx="110.5800" cy="97.8000" r="0.3000" /> 
<circle cx="115.3113" cy="116.9216" r="0.3000" /> 
<circle cx="117.6500" cy="109.9500" r="0.3000" /> 
<circle cx="105.1000" cy="102.5500" r="0.3000" /> 
<circle cx="107.6000" cy="102.6000" r="0.3000" /> 
<circle cx="117.8370" cy="113.8001" r="0.3000" /> 
<circle cx="105.5000" cy="114.0000" r="0.3000" /> 
<circle cx="110.9250" cy="99.9750" r="0.3000" /> 
<circle cx="115.0000" cy="118.6000" r="0.2500" /> 
<circle cx="110.2920" cy="101.3000" r="0.3000" /> 
<circle cx="103.9000" cy="98.2000" r="0.3000" /> 
<circle cx="117.5000" cy="116.4145" r="0.3000" /> 
<circle cx="105.4500" cy="116.0500" r="0.3000" /> 
<circle cx="104.1000" cy="119.6000" r="0.3000" /> 
<circle cx="118.7828" cy="119.0500" r="0.3000" /> 
<circle cx="116.2743" cy="122.9257" r="0.3000" /> 
<circle cx="116.9000" cy="117.6000" r="0.2500" /> 
<path style="fill:#7FC87F; fill-opacity:1.0000; stroke:none;fill-rule:evenodd;"
d="M 119.2341,96.2181
119.2390,96.2225
119.7775,96.7610
119.7992,96.8076
119.7995,96.8142
119.7995,130.1858
119.7819,130.2341
119.7775,130.2390
119.2390,130.7775
119.1924,130.7992
119.1858,130.7995
103.8142,130.7995
103.7659,130.7819
103.7610,130.7775
103.2225,130.2390
103.2008,130.1924
103.2005,130.1858
103.2005,122.0144
115.1495,122.0144
115.1495,122.1462
115.1700,122.2225
115.1836,122.2735
115.2495,122.3876
115.3427,122.4808
115.4568,122.5467
115.4568,122.5467
115.4568,122.5467
115.5841,122.5808
115.5841,122.5808
115.7159,122.5808
115.7530,122.5708
115.8043,122.5753
115.8406,122.6117
115.8451,122.6629
115.8376,122.6811
115.8079,122.7325
115.8079,122.7325
115.7738,122.8598
115.7738,122.9916
115.7942,123.0680
115.8079,123.1189
115.8738,123.2330
115.9669,123.3262
116.0811,123.3921
116.0811,123.3921
116.0811,123.3921
116.2084,123.4262
116.2084,123.4262
116.3402,123.4262
116.3402,123.4262
116.4675,123.3921
116.5816,123.3262
116.6748,123.2330
116.7407,123.1189
116.7748,122.9916
116.7748,122.8598
116.7407,122.7325
116.7407,122.7325
116.7407,122.7325
116.6748,122.6184
116.5816,122.5252
116.4675,122.4593
116.4165,122.4457
116.3402,122.4252
116.2084,122.4252
116.1892,122.4304
116.1712,122.4352
116.1200,122.4307
116.0836,122.3943
116.0791,122.3431
116.0867,122.3249
116.1164,122.2735
116.1505,122.1462
116.1505,122.0144
116.1164,121.8871
116.1164,121.8871
116.1164,121.8871
116.0505,121.7729
115.9573,121.6798
115.8432,121.6139
115.7923,121.6002
115.7159,121.5798
115.5841,121.5798
115.5205,121.5968
115.4568,121.6139
115.3427,121.6798
115.2495,121.7729
115.1836,121.8871
115.1631,121.9635
115.1495,122.0144
103.2005,122.0144
103.2005,119.5341
103.5995,119.5341
103.5995,119.6659
103.6114,119.7105
103.6336,119.7932
103.6995,119.9073
103.7927,120.0005
103.9068,120.0664
103.9068,120.0664
103.9068,120.0664
104.0341,120.1005
104.0341,120.1005
104.1659,120.1005
104.1659,120.1005
104.2932,120.0664
104.4073,120.0005
104.5005,119.9073
104.5664,119.7932
104.6005,119.6659
104.6005,119.5341
104.5664,119.4068
104.5664,119.4068
104.5664,119.4068
104.5005,119.2927
104.4073,119.1995
104.2932,119.1336
104.2271,119.1159
104.1659,119.0995
104.0341,119.0995
103.9729,119.1159
103.9068,119.1336
103.7927,119.1995
103.6995,119.2927
103.6336,119.4068
103.6329,119.4093
103.5995,119.5341
103.2005,119.5341
103.2005,115.9841
104.9495,115.9841
104.9495,116.1159
104.9700,116.1923
104.9836,116.2432
105.0495,116.3573
105.1427,116.4505
105.2568,116.5164
105.2568,116.5164
105.2568,116.5164
105.3841,116.5505
105.3841,116.5505
105.5159,116.5505
105.5159,116.5505
105.6432,116.5164
105.7055,116.4804
105.7573,116.4505
105.8505,116.3573
105.9164,116.2432
105.9164,116.2432
105.9505,116.1159
105.9505,115.9841
105.9164,115.8568
105.9164,115.8568
105.9164,115.8568
105.8505,115.7427
105.7573,115.6495
105.6432,115.5836
105.5923,115.5700
105.5159,115.5495
105.3841,115.5495
105.3205,115.5666
105.2568,115.5836
105.1427,115.6495
105.0495,115.7427
104.9836,115.8568
104.9631,115.9332
104.9495,115.9841
103.2005,115.9841
103.2005,113.9341
104.9995,113.9341
104.9995,114.0659
105.0200,114.1423
105.0336,114.1932
105.0995,114.3073
105.1927,114.4005
105.3068,114.4664
105.3068,114.4664
105.3068,114.4664
105.4341,114.5005
105.4341,114.5005
105.5659,114.5005
105.5659,114.5005
105.6932,114.4664
105.7224,114.4495
105.8073,114.4005
105.9005,114.3073
105.9664,114.1932
105.9664,114.1932
106.0005,114.0659
106.0005,113.9341
105.9664,113.8068
105.9664,113.8068
105.9664,113.8068
105.9005,113.6927
105.8073,113.5995
105.6932,113.5336
105.6423,113.5200
105.5659,113.4995
105.4341,113.4995
105.3705,113.5166
105.3068,113.5336
105.1927,113.5995
105.0995,113.6927
105.0336,113.8068
105.0131,113.8832
104.9995,113.9341
103.2005,113.9341
103.2005,107.9841
104.8995,107.9841
104.8995,108.1159
104.9200,108.1923
104.9336,108.2432
104.9995,108.3573
105.0927,108.4505
105.2068,108.5164
105.2068,108.5164
105.2068,108.5164
105.3341,108.5505
105.3341,108.5505
105.4659,108.5505
105.4659,108.5505
105.5932,108.5164
105.7073,108.4505
105.8005,108.3573
105.8664,108.2432
105.9005,108.1159
105.9005,107.9841
105.8664,107.8568
105.8664,107.8568
105.8664,107.8568
105.8005,107.7427
105.7073,107.6495
105.5932,107.5836
105.5423,107.5700
105.4659,107.5495
105.3341,107.5495
105.2705,107.5666
105.2068,107.5836
105.0927,107.6495
104.9995,107.7427
104.9336,107.8568
104.9131,107.9332
104.8995,107.9841
103.2005,107.9841
103.2005,106.4601
106.7995,106.4601
106.7995,120.4601
106.7995,120.5399
106.8300,120.6136
106.8300,120.6136
106.8300,120.6136
107.3300,121.1136
107.3864,121.1700
107.4601,121.2005
107.4601,121.2005
113.5399,121.2005
113.5399,121.2005
113.6136,121.1700
114.1700,120.6136
114.2005,120.5399
114.2005,120.4601
114.2005,118.5407
114.5495,118.5407
114.5495,118.6593
114.5718,118.7427
114.5802,118.7739
114.5802,118.7739
114.6395,118.8766
114.6847,118.9218
114.7065,118.9684
114.6931,119.0181
114.6847,119.0282
114.6395,119.0734
114.5802,119.1761
114.5802,119.1761
114.5495,119.2907
114.5495,119.4093
114.5782,119.5164
114.5802,119.5239
114.5802,119.5239
114.6395,119.6266
114.7234,119.7105
114.7827,119.7447
114.8261,119.7698
114.9407,119.8005
114.9407,119.8005
115.0593,119.8005
115.0593,119.8005
115.1739,119.7698
115.2766,119.7105
115.3605,119.6266
115.4198,119.5239
115.4505,119.4093
115.4505,119.2907
115.4198,119.1761
115.3953,119.1336
115.3605,119.0734
115.3153,119.0282
115.2947,118.9841
118.2823,118.9841
118.2823,119.1159
118.2985,119.1761
118.3165,119.2432
118.3823,119.3573
118.4755,119.4505
118.5897,119.5164
118.5897,119.5164
118.5897,119.5164
118.7170,119.5505
118.7170,119.5505
118.8487,119.5505
118.8487,119.5505
118.9760,119.5164
119.0902,119.4505
119.1833,119.3573
119.2492,119.2432
119.2833,119.1159
119.2833,118.9841
119.2492,118.8568
119.2492,118.8568
119.2492,118.8568
119.1833,118.7427
119.0902,118.6495
118.9760,118.5836
118.9251,118.5700
118.8487,118.5495
118.7170,118.5495
118.6533,118.5666
118.5897,118.5836
118.4755,118.6495
118.3823,118.7427
118.3165,118.8568
118.2990,118.9218
118.2823,118.9841
115.2947,118.9841
115.2935,118.9816
115.3069,118.9319
115.3153,118.9218
115.3605,118.8766
115.4198,118.7739
115.4198,118.7739
115.4505,118.6593
115.4505,118.5407
115.4198,118.4261
115.4198,118.4261
115.3605,118.3234
115.2766,118.2395
115.1739,118.1802
115.0593,118.1495
114.9407,118.1495
114.8261,118.1802
114.8261,118.1802
114.7234,118.2395
114.6395,118.3234
114.5802,118.4261
114.5802,118.4261
114.5495,118.5407
114.2005,118.5407
114.2005,117.5407
116.4495,117.5407
116.4495,117.6593
116.4802,117.7739
116.4802,117.7739
116.5395,117.8766
116.6234,117.9605
116.6827,117.9947
116.7261,118.0198
116.8407,118.0505
116.8407,118.0505
116.9593,118.0505
116.9593,118.0505
117.0739,118.0198
117.1766,117.9605
117.2605,117.8766
117.3198,117.7739
117.3505,117.6593
117.3505,117.5407
117.3198,117.4261
117.3198,117.4261
117.2605,117.3234
117.1766,117.2395
117.0739,117.1802
116.9593,117.1495
116.8407,117.1495
116.7261,117.1802
116.7261,117.1802
116.6234,117.2395
116.5395,117.3234
116.4802,117.4261
116.4802,117.4261
116.4495,117.5407
114.2005,117.5407
114.2005,116.3487
116.9995,116.3487
116.9995,116.4804
117.0183,116.5505
117.0336,116.6077
117.0995,116.7219
117.1927,116.8150
117.3068,116.8809
117.3068,116.8809
117.3068,116.8809
117.4341,116.9150
117.4341,116.9150
117.5659,116.9150
117.5659,116.9150
117.6932,116.8809
117.8073,116.8150
117.9005,116.7219
117.9664,116.6077
118.0005,116.4804
118.0005,116.3487
117.9664,116.2214
117.9664,116.2214
117.9664,116.2214
117.9005,116.1072
117.8073,116.0140
117.6932,115.9482
117.6423,115.9345
117.5659,115.9140
117.4341,115.9140
117.3705,115.9311
117.3068,115.9482
117.1927,116.0140
117.0995,116.1072
117.0336,116.2214
117.0131,116.2977
116.9995,116.3487
114.2005,116.3487
114.2005,114.7841
115.6995,114.7841
115.6995,114.9159
115.7200,114.9923
115.7336,115.0432
115.7995,115.1573
115.8927,115.2505
116.0068,115.3164
116.0068,115.3164
116.0068,115.3164
116.1341,115.3505
116.1341,115.3505
116.2659,115.3505
116.2659,115.3505
116.3932,115.3164
116.5073,115.2505
116.6005,115.1573
116.6664,115.0432
116.7005,114.9159
116.7005,114.7841
116.6664,114.6568
116.6664,114.6568
116.6664,114.6568
116.6005,114.5427
116.5073,114.4495
116.3932,114.3836
116.3423,114.3700
116.2659,114.3495
116.1341,114.3495
116.0705,114.3666
116.0068,114.3836
115.8927,114.4495
115.7995,114.5427
115.7336,114.6568
115.7131,114.7332
115.6995,114.7841
114.2005,114.7841
114.2005,113.7342
117.3365,113.7342
117.3365,113.8660
117.3547,113.9341
117.3706,113.9933
117.4365,114.1074
117.5297,114.2006
117.6438,114.2665
117.6438,114.2665
117.6438,114.2665
117.7711,114.3006
117.7711,114.3006
117.9029,114.3006
117.9029,114.3006
118.0302,114.2665
118.1443,114.2006
118.2375,114.1074
118.3034,113.9933
118.3375,113.8660
118.3375,113.7342
118.3034,113.6069
118.3034,113.6069
118.3034,113.6069
118.2375,113.4928
118.1443,113.3996
118.0302,113.3337
117.9793,113.3201
117.9029,113.2996
117.7711,113.2996
117.7075,113.3166
117.6438,113.3337
117.5297,113.3996
117.4365,113.4928
117.3706,113.6069
117.3501,113.6833
117.3365,113.7342
114.2005,113.7342
114.2005,112.6341
115.6995,112.6341
115.6995,112.7659
115.7200,112.8423
115.7336,112.8932
115.7995,113.0073
115.8927,113.1005
116.0068,113.1664
116.0068,113.1664
116.0068,113.1664
116.1341,113.2005
116.1341,113.2005
116.2659,113.2005
116.2659,113.2005
116.3932,113.1664
116.5073,113.1005
116.6005,113.0073
116.6664,112.8932
116.7005,112.7659
116.7005,112.6341
116.6664,112.5068
116.6664,112.5068
116.6664,112.5068
116.6005,112.3927
116.5073,112.2995
116.3932,112.2336
116.3423,112.2200
116.2659,112.1995
116.1341,112.1995
116.0705,112.2166
116.0068,112.2336
115.8927,112.2995
115.7995,112.3927
115.7336,112.5068
115.7131,112.5832
115.6995,112.6341
114.2005,112.6341
114.2005,108.6341
114.9495,108.6341
114.9495,108.7659
114.9700,108.8423
114.9836,108.8932
115.0495,109.0073
115.1427,109.1005
115.2568,109.1664
115.2568,109.1664
115.2568,109.1664
115.3841,109.2005
115.3841,109.2005
115.5159,109.2005
115.5159,109.2005
115.6432,109.1664
115.7573,109.1005
115.8505,109.0073
115.9164,108.8932
115.9505,108.7659
115.9505,108.6341
115.9164,108.5068
115.9164,108.5068
115.9164,108.5068
115.8505,108.3927
115.7573,108.2995
115.6432,108.2336
115.5923,108.2200
115.5159,108.1995
115.3841,108.1995
115.3205,108.2166
115.2568,108.2336
115.1427,108.2995
115.0495,108.3927
114.9836,108.5068
114.9719,108.5505
114.9495,108.6341
114.2005,108.6341
114.2005,107.8341
117.0995,107.8341
117.0995,107.9659
117.1200,108.0423
117.1336,108.0932
117.1995,108.2073
117.2927,108.3005
117.4068,108.3664
117.4068,108.3664
117.4068,108.3664
117.5341,108.4005
117.5341,108.4005
117.6659,108.4005
117.6659,108.4005
117.7932,108.3664
117.9073,108.3005
118.0005,108.2073
118.0533,108.1159
118.0664,108.0932
118.0664,108.0932
118.1005,107.9659
118.1005,107.8341
118.0664,107.7068
118.0664,107.7068
118.0664,107.7068
118.0005,107.5927
117.9073,107.4995
117.7932,107.4336
117.7423,107.4200
117.6659,107.3995
117.5341,107.3995
117.4705,107.4166
117.4068,107.4336
117.2927,107.4995
117.1995,107.5927
117.1336,107.7068
117.1240,107.7427
117.0995,107.8341
114.2005,107.8341
114.2005,106.4601
114.1700,106.3864
114.1136,106.3300
113.8909,106.1073
113.6136,105.8300
113.6136,105.8300
113.6136,105.8300
113.5399,105.7995
107.5399,105.7995
107.4601,105.7995
107.3864,105.8300
107.3864,105.8300
107.3864,105.8300
106.9501,106.2664
106.8864,106.3300
106.8582,106.3582
106.8300,106.3864
106.8300,106.3864
106.8300,106.3864
106.7995,106.4601
103.2005,106.4601
103.2005,105.7341
114.8495,105.7341
114.8495,105.8659
114.8700,105.9423
114.8836,105.9932
114.9495,106.1073
115.0427,106.2005
115.1568,106.2664
115.1568,106.2664
115.1568,106.2664
115.2841,106.3005
115.2841,106.3005
115.4159,106.3005
115.4159,106.3005
115.5432,106.2664
115.6573,106.2005
115.7505,106.1073
115.8164,105.9932
115.8505,105.8659
115.8505,105.7341
115.8164,105.6068
115.8164,105.6068
115.8164,105.6068
115.7505,105.4927
115.6573,105.3995
115.5432,105.3336
115.4923,105.3200
115.4159,105.2995
115.2841,105.2995
115.2205,105.3166
115.1568,105.3336
115.0427,105.3995
114.9495,105.4927
114.8836,105.6068
114.8631,105.6832
114.8495,105.7341
103.2005,105.7341
103.2005,104.7341
107.0495,104.7341
107.0495,104.8659
107.0700,104.9423
107.0836,104.9932
107.1495,105.1073
107.2427,105.2005
107.3568,105.2664
107.3568,105.2664
107.3568,105.2664
107.4841,105.3005
107.4841,105.3005
107.6159,105.3005
107.6159,105.3005
107.7432,105.2664
107.8573,105.2005
107.9505,105.1073
108.0164,104.9932
108.0505,104.8659
108.0505,104.7341
108.0164,104.6068
108.0164,104.6068
108.0164,104.6068
107.9505,104.4927
107.8573,104.3995
107.7432,104.3336
107.6923,104.3200
107.6159,104.2995
107.4841,104.2995
107.4205,104.3166
107.3568,104.3336
107.2427,104.3995
107.1495,104.4927
107.0836,104.6068
107.0631,104.6832
107.0495,104.7341
103.2005,104.7341
103.2005,103.0341
109.4995,103.0341
109.4995,103.1659
109.5200,103.2423
109.5336,103.2932
109.5995,103.4073
109.6927,103.5005
109.8068,103.5664
109.8068,103.5664
109.8068,103.5664
109.9341,103.6005
109.9341,103.6005
110.0659,103.6005
110.0659,103.6005
110.1932,103.5664
110.3073,103.5005
110.4005,103.4073
110.4664,103.2932
110.5005,103.1659
110.5005,103.0341
110.4664,102.9068
110.4664,102.9068
110.4664,102.9068
110.4005,102.7927
110.3216,102.7138
110.2999,102.6672
110.3132,102.6175
110.3553,102.5880
110.4405,102.5651
110.5546,102.4993
110.6478,102.4061
110.7137,102.2919
110.7478,102.1646
110.7478,102.0329
110.7137,101.9056
110.7137,101.9056
110.7137,101.9056
110.6478,101.7914
110.6478,101.7914
110.6312,101.7749
110.6095,101.7283
110.6228,101.6786
110.6312,101.6685
110.6925,101.6073
110.7583,101.4932
110.7925,101.3659
110.7925,101.2341
110.7583,101.1068
110.7583,101.1068
110.7583,101.1068
110.6925,100.9927
110.5993,100.8995
110.4851,100.8336
110.4342,100.8200
110.3578,100.7995
110.2261,100.7995
110.1624,100.8166
110.0988,100.8336
109.9846,100.8995
109.8915,100.9927
109.8256,101.1068
109.8139,101.1505
109.7915,101.2341
109.7915,101.3659
109.8119,101.4423
109.8256,101.4932
109.8915,101.6073
109.9080,101.6239
109.9298,101.6705
109.9164,101.7202
109.9080,101.7302
109.8468,101.7914
109.7809,101.9056
109.7604,101.9819
109.7468,102.0329
109.7468,102.1646
109.7673,102.2410
109.7809,102.2919
109.8468,102.4061
109.9257,102.4850
109.9474,102.5316
109.9341,102.5813
109.8920,102.6108
109.8670,102.6175
109.8068,102.6336
109.6927,102.6995
109.5995,102.7927
109.5336,102.9068
109.5219,102.9505
109.4995,103.0341
103.2005,103.0341
103.2005,102.3841
105.7519,102.3841
105.7519,102.5159
105.7651,102.5651
105.7860,102.6432
105.8519,102.7573
105.9451,102.8505
106.0592,102.9164
106.0592,102.9164
106.0592,102.9164
106.1865,102.9505
106.1865,102.9505
106.3183,102.9505
106.3183,102.9505
106.4456,102.9164
106.5597,102.8505
106.6529,102.7573
106.7188,102.6432
106.7529,102.5159
106.7529,102.3841
106.7188,102.2568
106.7188,102.2568
106.7188,102.2568
106.6529,102.1427
106.5597,102.0495
106.4456,101.9836
106.3947,101.9700
106.3183,101.9495
106.1865,101.9495
106.1229,101.9666
106.0592,101.9836
105.9451,102.0495
105.8519,102.1427
105.7860,102.2568
105.7766,102.2919
105.7519,102.3841
103.2005,102.3841
103.2005,100.5841
111.9995,100.5841
111.9995,100.7159
112.0200,100.7923
112.0336,100.8432
112.0995,100.9573
112.1927,101.0505
112.3068,101.1164
112.3068,101.1164
112.3068,101.1164
112.4341,101.1505
112.4341,101.1505
112.5659,101.1505
112.5659,101.1505
112.6932,101.1164
112.8073,101.0505
112.9005,100.9573
112.9664,100.8432
113.0005,100.7159
113.0005,100.5841
112.9871,100.5341
116.7095,100.5341
116.7095,100.6659
116.7300,100.7423
116.7436,100.7932
116.8095,100.9073
116.9027,101.0005
117.0168,101.0664
117.0168,101.0664
117.0168,101.0664
117.1441,101.1005
117.1441,101.1005
117.2759,101.1005
117.2759,101.1005
117.4032,101.0664
117.5173,101.0005
117.6105,100.9073
117.6764,100.7932
117.7105,100.6659
117.7105,100.5341
117.6764,100.4068
117.6764,100.4068
117.6764,100.4068
117.6105,100.2927
117.5173,100.1995
117.4032,100.1336
117.3523,100.1200
117.2759,100.0995
117.1441,100.0995
117.0805,100.1166
117.0168,100.1336
116.9027,100.1995
116.8095,100.2927
116.7436,100.4068
116.7252,100.4755
116.7095,100.5341
112.9871,100.5341
112.9664,100.4568
112.9664,100.4568
112.9664,100.4568
112.9005,100.3427
112.8073,100.2495
112.6932,100.1836
112.6356,100.1682
112.5659,100.1495
112.4341,100.1495
112.3705,100.1666
112.3068,100.1836
112.1927,100.2495
112.0995,100.3427
112.0336,100.4568
112.0286,100.4755
111.9995,100.5841
103.2005,100.5841
103.2005,99.9091
110.4245,99.9091
110.4245,100.0409
110.4402,100.0995
110.4586,100.1682
110.5245,100.2823
110.6177,100.3755
110.7318,100.4414
110.7318,100.4414
110.7318,100.4414
110.8591,100.4755
110.8591,100.4755
110.9909,100.4755
110.9909,100.4755
111.1182,100.4414
111.2323,100.3755
111.3255,100.2823
111.3914,100.1682
111.4255,100.0409
111.4255,99.9091
111.3914,99.7818
111.3914,99.7818
111.3914,99.7818
111.3255,99.6677
111.2323,99.5745
111.1182,99.5086
111.0673,99.4950
110.9909,99.4745
110.8591,99.4745
110.7955,99.4916
110.7318,99.5086
110.6177,99.5745
110.5245,99.6677
110.4586,99.7818
110.4381,99.8582
110.4245,99.9091
103.2005,99.9091
103.2005,98.1341
103.3995,98.1341
103.3995,98.2659
103.4200,98.3423
103.4336,98.3932
103.4995,98.5073
103.5927,98.6005
103.7068,98.6664
103.7068,98.6664
103.7068,98.6664
103.8341,98.7005
103.8341,98.7005
103.9659,98.7005
103.9659,98.7005
104.0932,98.6664
104.2073,98.6005
104.3005,98.5073
104.3664,98.3932
104.4005,98.2659
104.4005,98.1341
104.3664,98.0068
104.3664,98.0068
104.3664,98.0068
104.3005,97.8927
104.2073,97.7995
104.1983,97.7943
104.1983,97.7943
104.0941,97.7341
108.8095,97.7341
108.8095,97.8659
108.8300,97.9423
108.8436,97.9932
108.9095,98.1073
109.0027,98.2005
109.1168,98.2664
109.1168,98.2664
109.1168,98.2664
109.2441,98.3005
109.2441,98.3005
109.3759,98.3005
109.3759,98.3005
109.5032,98.2664
109.6173,98.2005
109.7105,98.1073
109.7764,97.9932
109.8105,97.8659
109.8105,97.7409
111.3495,97.7409
111.3495,97.8727
111.3700,97.9491
111.3836,98.0000
111.4495,98.1141
111.5427,98.2073
111.6568,98.2732
111.6568,98.2732
111.6568,98.2732
111.7841,98.3073
111.7841,98.3073
111.9159,98.3073
111.9159,98.3073
112.0432,98.2732
112.1573,98.2073
112.2505,98.1141
112.2724,98.0762
112.3118,98.0431
112.3632,98.0431
112.4027,98.0762
112.4027,98.0762
112.4495,98.1573
112.5427,98.2505
112.6568,98.3164
112.6568,98.3164
112.6568,98.3164
112.7841,98.3505
112.7841,98.3505
112.9159,98.3505
112.9159,98.3505
113.0432,98.3164
113.1573,98.2505
113.2505,98.1573
113.3164,98.0432
113.3505,97.9159
113.3505,97.7841
113.3164,97.6568
113.3164,97.6568
113.3164,97.6568
113.2505,97.5427
113.1573,97.4495
113.0432,97.3836
112.9923,97.3700
112.9159,97.3495
112.7841,97.3495
112.7205,97.3666
112.6568,97.3836
112.5427,97.4495
112.4495,97.5427
112.4276,97.5806
112.3882,97.6137
112.3367,97.6137
112.2973,97.5806
112.2505,97.4995
112.1573,97.4063
112.0432,97.3404
111.9923,97.3268
111.9159,97.3063
111.7841,97.3063
111.7205,97.3234
111.6568,97.3404
111.5427,97.4063
111.4495,97.4995
111.3836,97.6136
111.3631,97.6900
111.3495,97.7409
109.8105,97.7409
109.8105,97.7341
109.7764,97.6068
109.7764,97.6068
109.7764,97.6068
109.7105,97.4927
109.6173,97.3995
109.5032,97.3336
109.4523,97.3200
109.3759,97.2995
109.2441,97.2995
109.1805,97.3166
109.1168,97.3336
109.0027,97.3995
108.9095,97.4927
108.8436,97.6068
108.8231,97.6832
108.8095,97.7341
104.0941,97.7341
104.0932,97.7336
104.0614,97.7251
103.9659,97.6995
103.8341,97.6995
103.7705,97.7166
103.7068,97.7336
103.5927,97.7995
103.4995,97.8927
103.4336,98.0068
103.4150,98.0762
103.3995,98.1341
103.2005,98.1341
103.2005,96.8142
103.2181,96.7659
103.2225,96.7610
103.7610,96.2225
103.8076,96.2008
103.8142,96.2005
119.1858,96.2005
Z" /> 
</g>
<g style="fill:none; 
stroke:#D0D2CD; stroke-width:0.0500; stroke-opacity:1; 
stroke-linecap:round; stroke-linejoin:round;">
<path d="M103.0000 96.7000
L103.7000 96.0000
" />
<path d="M103.0000 130.3000
L103.0000 96.7000
" />
<path d="M103.7000 96.0000
L119.3000 96.0000
" />
<path d="M103.7000 131.0000
L103.0000 130.3000
" />
<path d="M107.0000 106.5000
L107.5000 106.0000
" />
<path d="M107.0000 120.5000
L107.0000 106.5000
" />
<path d="M107.5000 106.0000
L113.5000 106.0000
" />
<path d="M107.5000 121.0000
L107.0000 120.5000
" />
<path d="M113.5000 106.0000
L114.0000 106.5000
" />
<path d="M113.5000 121.0000
L107.5000 121.0000
" />
<path d="M114.0000 106.5000
L114.0000 120.5000
" />
<path d="M114.0000 120.5000
L113.5000 121.0000
" />
<path d="M119.3000 96.0000
L120.0000 96.7000
" />
<path d="M119.3000 131.0000
L103.7000 131.0000
" />
<path d="M120.0000 96.7000
L120.0000 130.3000
" />
<path d="M120.0000 130.3000
L119.3000 131.0000
" />
</g>
<g style="fill:#FFFFFF; fill-opacity:1.0000; stroke:none;">
<circle cx="107.5500" cy="104.8000" r="0.1500" /> 
<circle cx="115.4500" cy="108.7000" r="0.1500" /> 
<circle cx="116.2000" cy="112.7000" r="0.1500" /> 
<circle cx="115.6500" cy="122.0803" r="0.1500" /> 
<circle cx="117.6000" cy="107.9000" r="0.1500" /> 
<circle cx="106.2524" cy="102.4500" r="0.1500" /> 
<circle cx="117.2100" cy="100.6000" r="0.1500" /> 
<circle cx="116.2000" cy="114.8500" r="0.1500" /> 
<circle cx="105.4000" cy="108.0500" r="0.1500" /> 
<circle cx="109.3100" cy="97.8000" r="0.1500" /> 
<circle cx="112.5000" cy="100.6500" r="0.1500" /> 
<circle cx="112.8500" cy="97.8500" r="0.1500" /> 
<circle cx="110.2473" cy="102.0988" r="0.1500" /> 
<circle cx="115.0000" cy="119.3500" r="0.1000" /> 
<circle cx="110.0000" cy="103.1000" r="0.1500" /> 
<circle cx="115.3500" cy="105.8000" r="0.1500" /> 
<circle cx="111.8500" cy="97.8068" r="0.1500" /> 
<circle cx="105.2500" cy="109.9000" r="0.1500" /> 
<circle cx="105.3000" cy="105.6500" r="0.1500" /> 
<circle cx="106.7000" cy="104.6272" r="0.1500" /> 
<circle cx="104.6862" cy="96.5000" r="0.1500" /> 
<circle cx="117.1500" cy="118.7500" r="0.1500" /> 
<circle cx="114.9163" cy="121.7615" r="0.1500" /> 
<circle cx="115.3000" cy="116.0500" r="0.1500" /> 
<circle cx="110.5800" cy="97.8000" r="0.1500" /> 
<circle cx="115.3113" cy="116.9216" r="0.1500" /> 
<circle cx="117.6500" cy="109.9500" r="0.1500" /> 
<circle cx="105.1000" cy="102.5500" r="0.1500" /> 
<circle cx="107.6000" cy="102.6000" r="0.1500" /> 
<circle cx="117.8370" cy="113.8001" r="0.1500" /> 
<circle cx="105.5000" cy="114.0000" r="0.1500" /> 
<circle cx="110.9250" cy="99.9750" r="0.1500" /> 
<circle cx="115.0000" cy="118.6000" r="0.1000" /> 
<circle cx="110.2920" cy="101.3000" r="0.1500" /> 
<circle cx="103.9000" cy="98.2000" r="0.1500" /> 
<circle cx="117.5000" cy="116.4145" r="0.1500" /> 
<circle cx="105.4500" cy="116.0500" r="0.1500" /> 
<circle cx="104.1000" cy="119.6000" r="0.1500" /> 
<circle cx="118.7828" cy="119.0500" r="0.1500" /> 
<circle cx="116.2743" cy="122.9257" r="0.1500" /> 
<circle cx="116.9000" cy="117.6000" r="0.1000" /> 
</g> 
</svg>
