<?xml version="1.0" standalone="no"?>
 <!DOCTYPE svg PUBLIC "-//W3C//DTD SVG 1.1//EN" 
 "http://www.w3.org/Graphics/SVG/1.1/DTD/svg11.dtd"> 
<svg
  xmlns:svg="http://www.w3.org/2000/svg"
  xmlns="http://www.w3.org/2000/svg"
  xmlns:xlink="http://www.w3.org/1999/xlink"
  xmlns:inkscape="http://www.inkscape.org/namespaces/inkscape"
  version="1.1"
  width="297.0022mm" height="210.0072mm" viewBox="0.0000 0.0000 297.0022 210.0072">
<title>SVG Image created as pod-1-ground.svg date 2026-09-12T22:36:41 </title>
  <desc>Image generated by PCBNEW </desc>
<g style="fill:#000000; fill-opacity:1.0000;stroke:#000000; stroke-opacity:1.0000;
stroke-linecap:round; stroke-linejoin:round;"
 transform="translate(0 0) scale(1 1)">
</g>
<g style="fill:#7FC87F; fill-opacity:1.0000; stroke:none;">
<circle cx="85.4900" cy="56.2000" r="0.2250" /> 
<circle cx="83.4000" cy="54.8500" r="0.2250" /> 
<circle cx="80.3200" cy="54.0000" r="0.2250" /> 
<circle cx="83.0900" cy="56.2000" r="0.2250" /> 
<circle cx="89.5000" cy="57.0000" r="0.2250" /> 
<circle cx="81.7900" cy="74.4500" r="0.2250" /> 
<circle cx="80.9600" cy="50.4500" r="0.2250" /> 
<circle cx="84.9200" cy="54.6500" r="0.2250" /> 
<circle cx="87.7500" cy="66.3600" r="0.2250" /> 
<circle cx="80.6875" cy="80.2750" r="0.2250" /> 
<circle cx="86.5200" cy="75.3000" r="0.2250" /> 
<circle cx="88.4000" cy="63.7600" r="0.2250" /> 
<circle cx="89.2000" cy="80.3000" r="0.2250" /> 
<circle cx="89.2000" cy="77.1000" r="0.2250" /> 
<circle cx="77.5000" cy="59.5000" r="0.2250" /> 
<circle cx="86.5241" cy="60.6887" r="0.2250" /> 
<circle cx="80.9152" cy="76.9636" r="0.2250" /> 
<circle cx="88.4914" cy="61.4590" r="0.2250" /> 
<circle cx="88.0461" cy="59.9797" r="0.2250" /> 
<circle cx="83.5968" cy="76.2906" r="0.2250" /> 
<circle cx="91.1000" cy="77.1000" r="0.2250" /> 
<circle cx="82.2300" cy="50.4500" r="0.2250" /> 
<circle cx="77.5000" cy="61.5000" r="0.2250" /> 
<circle cx="91.1000" cy="80.3000" r="0.2250" /> 
<circle cx="86.4800" cy="54.0000" r="0.2250" /> 
<circle cx="90.5500" cy="53.5000" r="0.2250" /> 
<circle cx="81.8800" cy="54.6500" r="0.2250" /> 
<circle cx="80.6875" cy="78.9750" r="0.2250" /> 
<circle cx="78.0500" cy="53.5000" r="0.2250" /> 
<circle cx="88.6800" cy="75.3000" r="0.2250" /> 
<circle cx="84.4800" cy="52.5000" r="0.2250" /> 
<circle cx="89.4000" cy="64.7700" r="0.2250" /> 
<circle cx="89.5000" cy="59.0000" r="0.2250" /> 
<circle cx="84.2500" cy="54.0000" r="0.2250" /> 
<circle cx="81.4518" cy="74.9828" r="0.2250" /> 
<circle cx="84.7700" cy="50.7226" r="0.2250" /> 
<circle cx="77.3596" cy="70.5252" r="0.2250" /> 
<circle cx="77.5368" cy="64.0424" r="0.2250" /> 
<circle cx="86.0400" cy="52.4034" r="0.2250" /> 
<circle cx="78.6565" cy="73.8418" r="0.2250" /> 
<circle cx="77.8170" cy="65.7096" r="0.2250" /> 
<circle cx="89.5957" cy="61.9573" r="0.2250" /> 
<circle cx="89.3692" cy="62.7743" r="0.2250" /> 
<circle cx="79.7068" cy="55.9169" r="0.2250" /> 
<circle cx="86.7592" cy="74.5117" r="0.2250" /> 
<circle cx="85.3144" cy="74.2364" r="0.2250" /> 
<circle cx="90.1829" cy="69.6998" r="0.2250" /> 
<circle cx="77.9908" cy="72.0934" r="0.2250" /> 
<circle cx="82.4000" cy="53.1000" r="0.2250" /> 
<circle cx="84.7100" cy="57.1325" r="0.2250" /> 
<circle cx="77.1814" cy="71.5236" r="0.2250" /> 
<circle cx="88.7017" cy="71.9087" r="0.2250" /> 
<circle cx="87.5800" cy="60.8017" r="0.2250" /> 
<circle cx="90.6525" cy="68.1869" r="0.2250" /> 
<circle cx="84.1500" cy="55.1406" r="0.2250" /> 
<circle cx="88.5313" cy="52.4687" r="0.2250" /> 
<circle cx="89.4549" cy="65.8957" r="0.2250" /> 
<circle cx="80.7368" cy="76.0467" r="0.2250" /> 
<circle cx="84.2898" cy="73.8611" r="0.2250" /> 
<path style="fill:#7FC87F; fill-opacity:1.0000; stroke:none;fill-rule:evenodd;"
d="M 91.2179,48.2722
91.7278,48.7821
91.7495,48.8344
91.7495,82.1656
91.7278,82.2179
91.2179,82.7278
91.1656,82.7495
75.8344,82.7495
75.7821,82.7278
75.2722,82.2179
75.2505,82.1656
75.2505,80.2190
80.2620,80.2190
80.2620,80.3310
80.2910,80.4392
80.2910,80.4392
80.2910,80.4392
80.3470,80.5363
80.4262,80.6155
80.5233,80.6715
80.6315,80.7005
80.6315,80.7005
80.6315,80.7005
80.7435,80.7005
80.7435,80.7005
80.8517,80.6715
80.9488,80.6155
81.0280,80.5363
81.0840,80.4392
81.1130,80.3310
81.1130,80.3310
81.1130,80.2440
88.7745,80.2440
88.7745,80.3560
88.8035,80.4642
88.8035,80.4642
88.8035,80.4642
88.8595,80.5613
88.9387,80.6405
89.0358,80.6965
89.1440,80.7255
89.1440,80.7255
89.1440,80.7255
89.2560,80.7255
89.2560,80.7255
89.3642,80.6965
89.4613,80.6405
89.5405,80.5613
89.5965,80.4642
89.6255,80.3560
89.6255,80.3560
89.6255,80.2440
89.6255,80.2440
89.6188,80.2190
89.5965,80.1358
89.5405,80.0387
89.4613,79.9595
89.4180,79.9345
89.3642,79.9035
89.3642,79.9035
89.2560,79.8745
89.2560,79.8745
89.1440,79.8745
89.1440,79.8745
89.0358,79.9035
89.0358,79.9035
88.9387,79.9595
88.8595,80.0387
88.8035,80.1358
88.8035,80.1358
88.7745,80.2440
81.1130,80.2440
81.1130,80.2190
81.1130,80.2190
81.0840,80.1108
81.0840,80.1108
81.0280,80.0137
80.9488,79.9345
80.8950,79.9035
80.8517,79.8785
80.8517,79.8785
80.7435,79.8495
80.7435,79.8495
80.6315,79.8495
80.6315,79.8495
80.5233,79.8785
80.5233,79.8785
80.4262,79.9345
80.3470,80.0137
80.2910,80.1108
80.2910,80.1108
80.2620,80.2190
75.2505,80.2190
75.2505,75.9907
80.3113,75.9907
80.3113,76.1027
80.3403,76.2109
80.3403,76.2109
80.3539,76.2346
80.3963,76.3080
80.4755,76.3872
80.5726,76.4432
80.5726,76.4432
80.6684,76.4689
80.7133,76.5034
80.7207,76.5595
80.6863,76.6044
80.6539,76.6231
80.5747,76.7023
80.5187,76.7994
80.5187,76.7994
80.4897,76.9076
80.4897,77.0196
80.5187,77.1278
80.5187,77.1278
80.5187,77.1278
80.5747,77.2249
80.6539,77.3041
80.7510,77.3601
80.8592,77.3891
80.8592,77.3891
80.8592,77.3891
80.9712,77.3891
80.9712,77.3891
81.0794,77.3601
81.1765,77.3041
81.2557,77.2249
81.3117,77.1278
81.3342,77.0440
88.7745,77.0440
88.7745,77.1560
88.8035,77.2642
88.8035,77.2642
88.8265,77.3041
88.8595,77.3613
88.9387,77.4405
89.0358,77.4965
89.1440,77.5255
89.1440,77.5255
89.1440,77.5255
89.2560,77.5255
89.2560,77.5255
89.3642,77.4965
89.4613,77.4405
89.5405,77.3613
89.5965,77.2642
89.6255,77.1560
89.6255,77.1560
89.6255,77.0440
89.6255,77.0440
89.5965,76.9358
89.5965,76.9358
89.5405,76.8387
89.4613,76.7595
89.3861,76.7161
89.3642,76.7035
89.3642,76.7035
89.2560,76.6745
89.2560,76.6745
89.1440,76.6745
89.1440,76.6745
89.0358,76.7035
89.0358,76.7035
88.9387,76.7595
88.8595,76.8387
88.8035,76.9358
88.8035,76.9358
88.7745,77.0440
81.3342,77.0440
81.3407,77.0196
81.3407,76.9076
81.3407,76.9076
81.3407,76.9076
81.3117,76.7994
81.3117,76.7994
81.2557,76.7023
81.1765,76.6231
81.1441,76.6044
81.0794,76.5671
81.0794,76.5671
80.9836,76.5414
80.9386,76.5069
80.9313,76.4508
80.9657,76.4058
80.9981,76.3872
81.0773,76.3080
81.1197,76.2346
83.1713,76.2346
83.1713,76.3466
83.2003,76.4548
83.2003,76.4548
83.2283,76.5034
83.2563,76.5519
83.3355,76.6311
83.4326,76.6871
83.5408,76.7161
83.5408,76.7161
83.5408,76.7161
83.6528,76.7161
83.6528,76.7161
83.7610,76.6871
83.8581,76.6311
83.9373,76.5519
83.9933,76.4548
84.0223,76.3466
84.0223,76.3466
84.0223,76.2346
84.0223,76.2346
84.0159,76.2106
83.9933,76.1264
83.9373,76.0293
83.8581,75.9501
83.7610,75.8941
83.7610,75.8941
83.6528,75.8651
83.6528,75.8651
83.5408,75.8651
83.5408,75.8651
83.4326,75.8941
83.4326,75.8941
83.3355,75.9501
83.2563,76.0293
83.2003,76.1264
83.2003,76.1264
83.1713,76.2346
81.1197,76.2346
81.1333,76.2109
81.1623,76.1027
81.1623,76.1027
81.1623,75.9907
81.1623,75.9907
81.1333,75.8825
81.1333,75.8825
81.0773,75.7854
80.9981,75.7062
80.9812,75.6965
80.9010,75.6502
80.9010,75.6502
80.7928,75.6212
80.7928,75.6212
80.6808,75.6212
80.6808,75.6212
80.5726,75.6502
80.5726,75.6502
80.4755,75.7062
80.3963,75.7854
80.3403,75.8825
80.3403,75.8825
80.3113,75.9907
75.2505,75.9907
75.2505,74.9268
81.0263,74.9268
81.0263,75.0388
81.0553,75.1470
81.0553,75.1470
81.0553,75.1470
81.1113,75.2441
81.1905,75.3233
81.2876,75.3793
81.3958,75.4083
81.3958,75.4083
81.3958,75.4083
81.5078,75.4083
81.5078,75.4083
81.6160,75.3793
81.7131,75.3233
81.7923,75.2441
81.7923,75.2440
86.0945,75.2440
86.0945,75.3560
86.1235,75.4642
86.1235,75.4642
86.1235,75.4642
86.1795,75.5613
86.2587,75.6405
86.3558,75.6965
86.4640,75.7255
86.4640,75.7255
86.4640,75.7255
86.5760,75.7255
86.5760,75.7255
86.6842,75.6965
86.7813,75.6405
86.8605,75.5613
86.9165,75.4642
86.9455,75.3560
86.9455,75.3560
86.9455,75.2440
86.9455,75.2440
86.9165,75.1358
86.9165,75.1358
86.8605,75.0387
86.8605,75.0387
86.8605,75.0387
86.8575,75.0349
86.8590,75.0338
86.8398,74.9874
86.8615,74.9351
86.8946,74.9159
86.9234,74.9082
87.0205,74.8522
87.0997,74.7730
87.1557,74.6759
87.1847,74.5677
87.1847,74.5677
87.1847,74.4557
87.1847,74.4557
87.1557,74.3475
87.1557,74.3475
87.0997,74.2504
87.0205,74.1712
86.9358,74.1224
86.9234,74.1152
86.9234,74.1152
86.8152,74.0862
86.8152,74.0862
86.7032,74.0862
86.7032,74.0862
86.5950,74.1152
86.5950,74.1152
86.4979,74.1712
86.4187,74.2504
86.3627,74.3475
86.3627,74.3475
86.3337,74.4557
86.3337,74.5677
86.3627,74.6759
86.3627,74.6759
86.4187,74.7730
86.4217,74.7768
86.4202,74.7779
86.4394,74.8243
86.4177,74.8766
86.3846,74.8958
86.3558,74.9035
86.3558,74.9035
86.2587,74.9595
86.1795,75.0387
86.1235,75.1358
86.1235,75.1358
86.0945,75.2440
81.7923,75.2440
81.8483,75.1470
81.8773,75.0388
81.8773,75.0388
81.8773,74.9239
81.8990,74.8716
81.9321,74.8524
81.9542,74.8465
82.0513,74.7905
82.1305,74.7113
82.1865,74.6142
82.2155,74.5060
82.2155,74.5060
82.2155,74.3940
82.2155,74.3940
82.1865,74.2858
82.1865,74.2858
82.1305,74.1887
82.0513,74.1095
82.0109,74.0862
81.9542,74.0535
81.9542,74.0535
81.8460,74.0245
81.8460,74.0245
81.7340,74.0245
81.7340,74.0245
81.6258,74.0535
81.6258,74.0535
81.5287,74.1095
81.4495,74.1887
81.3935,74.2858
81.3935,74.2858
81.3645,74.3940
81.3645,74.5089
81.3428,74.5612
81.3097,74.5804
81.2876,74.5863
81.2876,74.5863
81.1905,74.6423
81.1113,74.7215
81.0553,74.8186
81.0553,74.8186
81.0263,74.9268
75.2505,74.9268
75.2505,73.7858
78.2310,73.7858
78.2310,73.8978
78.2600,74.0060
78.2600,74.0060
78.2711,74.0253
78.3160,74.1031
78.3952,74.1823
78.4923,74.2383
78.6005,74.2673
78.6005,74.2673
78.6005,74.2673
78.7125,74.2673
78.7125,74.2673
78.8207,74.2383
78.9178,74.1823
78.9970,74.1031
79.0530,74.0060
79.0820,73.8978
79.0820,73.8978
79.0820,73.8051
83.8643,73.8051
83.8643,73.9171
83.8933,74.0253
83.8933,74.0253
83.8933,74.0253
83.9493,74.1224
84.0285,74.2016
84.1256,74.2576
84.2338,74.2866
84.2338,74.2866
84.2338,74.2866
84.3458,74.2866
84.3458,74.2866
84.4540,74.2576
84.5511,74.2016
84.5723,74.1804
84.8889,74.1804
84.8889,74.2924
84.9179,74.4006
84.9179,74.4006
84.9497,74.4557
84.9739,74.4977
85.0531,74.5769
85.1502,74.6329
85.2584,74.6619
85.2584,74.6619
85.2584,74.6619
85.3704,74.6619
85.3704,74.6619
85.4786,74.6329
85.5757,74.5769
85.6549,74.4977
85.7109,74.4006
85.7399,74.2924
85.7399,74.2924
85.7399,74.1804
85.7399,74.1804
85.7192,74.1031
85.7109,74.0722
85.6549,73.9751
85.5757,73.8959
85.4786,73.8399
85.4786,73.8399
85.3704,73.8109
85.3704,73.8109
85.2584,73.8109
85.2584,73.8109
85.1502,73.8399
85.1502,73.8399
85.0531,73.8959
84.9739,73.9751
84.9179,74.0722
84.9179,74.0722
84.8889,74.1804
84.5723,74.1804
84.6303,74.1224
84.6863,74.0253
84.7153,73.9171
84.7153,73.9171
84.7153,73.8051
84.7153,73.8051
84.7101,73.7858
84.6863,73.6969
84.6303,73.5998
84.5511,73.5206
84.4540,73.4646
84.4540,73.4646
84.3458,73.4356
84.3458,73.4356
84.2338,73.4356
84.2338,73.4356
84.1256,73.4646
84.1256,73.4646
84.0285,73.5206
83.9493,73.5998
83.8933,73.6969
83.8933,73.6969
83.8643,73.8051
79.0820,73.8051
79.0820,73.7858
79.0820,73.7858
79.0530,73.6776
79.0530,73.6776
78.9970,73.5805
78.9178,73.5013
78.8542,73.4646
78.8207,73.4453
78.8207,73.4453
78.7125,73.4163
78.7125,73.4163
78.6005,73.4163
78.6005,73.4163
78.4923,73.4453
78.4923,73.4453
78.3952,73.5013
78.3160,73.5805
78.2600,73.6776
78.2600,73.6776
78.2310,73.7858
75.2505,73.7858
75.2505,72.0374
77.5653,72.0374
77.5653,72.1494
77.5943,72.2576
77.5943,72.2576
77.6218,72.3052
77.6503,72.3547
77.7295,72.4339
77.8266,72.4899
77.9348,72.5189
77.9348,72.5189
77.9348,72.5189
78.0468,72.5189
78.0468,72.5189
78.1550,72.4899
78.2521,72.4339
78.3313,72.3547
78.3873,72.2576
78.4163,72.1494
78.4163,72.1494
78.4163,72.0374
78.4163,72.0374
78.3873,71.9292
78.3873,71.9292
78.3313,71.8321
78.2521,71.7529
78.2374,71.7445
78.1550,71.6969
78.1550,71.6969
78.0468,71.6679
78.0468,71.6679
77.9348,71.6679
77.9348,71.6679
77.8266,71.6969
77.8266,71.6969
77.7295,71.7529
77.7295,71.7529
77.6838,71.7987
77.6837,71.7987
77.6503,71.8321
77.6076,71.9062
77.6076,71.9062
77.5943,71.9292
77.5943,71.9292
77.5653,72.0374
75.2505,72.0374
75.2505,71.4676
76.7559,71.4676
76.7559,71.5796
76.7849,71.6878
76.7849,71.6878
76.7901,71.6969
76.8409,71.7849
76.9201,71.8641
77.0172,71.9201
77.1254,71.9491
77.1254,71.9491
77.1254,71.9491
77.2374,71.9491
77.2374,71.9491
77.3456,71.9201
77.4427,71.8641
77.5219,71.7849
77.5779,71.6878
77.6069,71.5796
77.6069,71.5796
77.6069,71.4676
77.6069,71.4676
77.5779,71.3594
77.5779,71.3594
77.5219,71.2623
77.4427,71.1831
77.3456,71.1271
77.3456,71.1271
77.2374,71.0981
77.2374,71.0981
77.1254,71.0981
77.1254,71.0981
77.0172,71.1271
77.0172,71.1271
76.9201,71.1831
76.8409,71.2623
76.7849,71.3594
76.7849,71.3594
76.7559,71.4676
75.2505,71.4676
75.2505,70.4692
76.9341,70.4692
76.9341,70.5812
76.9631,70.6894
76.9631,70.6894
76.9631,70.6894
77.0191,70.7865
77.0983,70.8657
77.1954,70.9217
77.3036,70.9507
77.3036,70.9507
77.3036,70.9507
77.4156,70.9507
77.4156,70.9507
77.5238,70.9217
77.6209,70.8657
77.7001,70.7865
77.7561,70.6894
77.7851,70.5812
77.7851,70.5812
77.7851,70.4692
77.7851,70.4692
77.7561,70.3610
77.7561,70.3610
77.7001,70.2639
77.6209,70.1847
77.5238,70.1287
77.5238,70.1287
77.4156,70.0997
77.4156,70.0997
77.3036,70.0997
77.3036,70.0997
77.1954,70.1287
77.1954,70.1287
77.0983,70.1847
77.0191,70.2639
76.9631,70.3610
76.9631,70.3610
76.9341,70.4692
75.2505,70.4692
75.2505,65.6536
77.3915,65.6536
77.3915,65.7656
77.4205,65.8738
77.4205,65.8738
77.4205,65.8738
77.4765,65.9709
77.5557,66.0501
77.6528,66.1061
77.7610,66.1351
77.7610,66.1351
77.7610,66.1351
77.8730,66.1351
77.8730,66.1351
77.9812,66.1061
78.0783,66.0501
78.1575,65.9709
78.2135,65.8738
78.2425,65.7656
78.2425,65.7656
78.2425,65.6536
78.2425,65.6536
78.2135,65.5454
78.2135,65.5454
78.1575,65.4483
78.0783,65.3691
77.9812,65.3131
77.9812,65.3131
77.8730,65.2841
77.8730,65.2841
77.7610,65.2841
77.7610,65.2841
77.6528,65.3131
77.6528,65.3131
77.5557,65.3691
77.4765,65.4483
77.4205,65.5454
77.4205,65.5454
77.3915,65.6536
75.2505,65.6536
75.2505,63.9864
77.1113,63.9864
77.1113,64.0984
77.1403,64.2066
77.1403,64.2066
77.1403,64.2066
77.1963,64.3037
77.2755,64.3829
77.3726,64.4389
77.4808,64.4679
77.4808,64.4679
77.4808,64.4679
77.5928,64.4679
77.5928,64.4679
77.7010,64.4389
77.7981,64.3829
77.8773,64.3037
77.9333,64.2066
77.9623,64.0984
77.9623,64.0984
77.9623,63.9864
77.9623,63.9864
77.9333,63.8782
77.9333,63.8782
77.8773,63.7811
77.7981,63.7019
77.7010,63.6459
77.7010,63.6459
77.5928,63.6169
77.5928,63.6169
77.4808,63.6169
77.4808,63.6169
77.3726,63.6459
77.3726,63.6459
77.2755,63.7019
77.1963,63.7811
77.1403,63.8782
77.1403,63.8782
77.1113,63.9864
75.2505,63.9864
75.2505,59.4440
77.0745,59.4440
77.0745,59.5560
77.1035,59.6642
77.1035,59.6642
77.1035,59.6642
77.1595,59.7613
77.2387,59.8405
77.3358,59.8965
77.4440,59.9255
77.4440,59.9255
77.4440,59.9255
77.5560,59.9255
77.5560,59.9255
77.6642,59.8965
77.7613,59.8405
77.8405,59.7613
77.8965,59.6642
77.9255,59.5560
77.9255,59.5560
77.9255,59.4440
77.9255,59.4440
77.8965,59.3358
77.8965,59.3358
77.8405,59.2387
77.7613,59.1595
77.6642,59.1035
77.6642,59.1035
77.5560,59.0745
77.5560,59.0745
77.4440,59.0745
77.4440,59.0745
77.3358,59.1035
77.3358,59.1035
77.2387,59.1595
77.1595,59.2387
77.1035,59.3358
77.1035,59.3358
77.0745,59.4440
75.2505,59.4440
75.2505,58.4502
78.7495,58.4502
78.7495,72.5498
78.7876,72.6419
78.7876,72.6419
79.2834,73.1377
79.2834,73.1377
79.2876,73.1419
79.2876,73.1419
79.3581,73.2124
79.3851,73.2235
79.4502,73.2505
79.4502,73.2505
79.5584,73.2505
79.5584,73.2505
85.5498,73.2505
85.5498,73.2505
85.6419,73.2124
86.1315,72.7228
86.1315,72.7228
86.1419,72.7124
86.1419,72.7124
86.2124,72.6419
86.2235,72.6149
86.2505,72.5498
86.2505,72.4502
86.2505,72.4442
86.2505,72.4442
86.2505,71.8527
88.2762,71.8527
88.2762,71.9647
88.3052,72.0729
88.3052,72.0729
88.3052,72.0729
88.3612,72.1700
88.4404,72.2492
88.5375,72.3052
88.6457,72.3342
88.6457,72.3342
88.6457,72.3342
88.7577,72.3342
88.7577,72.3342
88.8659,72.3052
88.9630,72.2492
89.0422,72.1700
89.0982,72.0729
89.1272,71.9647
89.1272,71.9647
89.1272,71.8527
89.1272,71.8527
89.0982,71.7445
89.0982,71.7445
89.0422,71.6474
88.9630,71.5682
88.8659,71.5122
88.8659,71.5122
88.7577,71.4832
88.7577,71.4832
88.6457,71.4832
88.6457,71.4832
88.5375,71.5122
88.5375,71.5122
88.4404,71.5682
88.3612,71.6474
88.3052,71.7445
88.3052,71.7445
88.2762,71.8527
86.2505,71.8527
86.2505,69.6438
89.7574,69.6438
89.7574,69.7558
89.7864,69.8640
89.7864,69.8640
89.7864,69.8640
89.8424,69.9611
89.9216,70.0403
90.0187,70.0963
90.1269,70.1253
90.1269,70.1253
90.1269,70.1253
90.2389,70.1253
90.2389,70.1253
90.3471,70.0963
90.4442,70.0403
90.5234,69.9611
90.5794,69.8640
90.6084,69.7558
90.6084,69.7558
90.6084,69.6438
90.6084,69.6438
90.5794,69.5356
90.5794,69.5356
90.5234,69.4385
90.4442,69.3593
90.3471,69.3033
90.3471,69.3033
90.2389,69.2743
90.2389,69.2743
90.1269,69.2743
90.1269,69.2743
90.0187,69.3033
90.0187,69.3033
89.9216,69.3593
89.8424,69.4385
89.7864,69.5356
89.7864,69.5356
89.7574,69.6438
86.2505,69.6438
86.2505,68.1309
90.2270,68.1309
90.2270,68.2429
90.2560,68.3511
90.2560,68.3511
90.2560,68.3511
90.3120,68.4482
90.3912,68.5274
90.4883,68.5834
90.5965,68.6124
90.5965,68.6124
90.5965,68.6124
90.7085,68.6124
90.7085,68.6124
90.8167,68.5834
90.9138,68.5274
90.9930,68.4482
91.0490,68.3511
91.0780,68.2429
91.0780,68.2429
91.0780,68.1309
91.0780,68.1309
91.0490,68.0227
91.0490,68.0227
90.9930,67.9256
90.9138,67.8464
90.8167,67.7904
90.8167,67.7904
90.7085,67.7614
90.7085,67.7614
90.5965,67.7614
90.5965,67.7614
90.4883,67.7904
90.4883,67.7904
90.3912,67.8464
90.3120,67.9256
90.2560,68.0227
90.2560,68.0227
90.2270,68.1309
86.2505,68.1309
86.2505,66.3040
87.3245,66.3040
87.3245,66.4160
87.3535,66.5242
87.3535,66.5242
87.3535,66.5242
87.4095,66.6213
87.4887,66.7005
87.5858,66.7565
87.6940,66.7855
87.6940,66.7855
87.6940,66.7855
87.8060,66.7855
87.8060,66.7855
87.9142,66.7565
88.0113,66.7005
88.0905,66.6213
88.1465,66.5242
88.1755,66.4160
88.1755,66.4160
88.1755,66.3040
88.1755,66.3040
88.1465,66.1958
88.1465,66.1958
88.0905,66.0987
88.0113,66.0195
87.9142,65.9635
87.9142,65.9635
87.8060,65.9345
87.8060,65.9345
87.6940,65.9345
87.6940,65.9345
87.5858,65.9635
87.5858,65.9635
87.4887,66.0195
87.4095,66.0987
87.3535,66.1958
87.3535,66.1958
87.3245,66.3040
86.2505,66.3040
86.2505,65.8397
89.0294,65.8397
89.0294,65.9517
89.0584,66.0599
89.0584,66.0599
89.1018,66.1351
89.1144,66.1570
89.1936,66.2362
89.2907,66.2922
89.3989,66.3212
89.3989,66.3212
89.3989,66.3212
89.5109,66.3212
89.5109,66.3212
89.6191,66.2922
89.7162,66.2362
89.7954,66.1570
89.8514,66.0599
89.8804,65.9517
89.8804,65.9517
89.8804,65.8397
89.8804,65.8397
89.8514,65.7315
89.8514,65.7315
89.7954,65.6344
89.7162,65.5552
89.6991,65.5454
89.6191,65.4992
89.6191,65.4992
89.5109,65.4702
89.5109,65.4702
89.3989,65.4702
89.3989,65.4702
89.2907,65.4992
89.2907,65.4992
89.1936,65.5552
89.1144,65.6344
89.0584,65.7315
89.0584,65.7315
89.0294,65.8397
86.2505,65.8397
86.2505,63.7040
87.9745,63.7040
87.9745,63.8160
88.0035,63.9242
88.0035,63.9242
88.0035,63.9242
88.0595,64.0213
88.1387,64.1005
88.2358,64.1565
88.3440,64.1855
88.3440,64.1855
88.3440,64.1855
88.4560,64.1855
88.4560,64.1855
88.5642,64.1565
88.6613,64.1005
88.7405,64.0213
88.7965,63.9242
88.8255,63.8160
88.8255,63.8160
88.8255,63.7040
88.8255,63.7040
88.7965,63.5958
88.7965,63.5958
88.7405,63.4987
88.6613,63.4195
88.5642,63.3635
88.5642,63.3635
88.4560,63.3345
88.4560,63.3345
88.3440,63.3345
88.3440,63.3345
88.2358,63.3635
88.2358,63.3635
88.1387,63.4195
88.0595,63.4987
88.0035,63.5958
88.0035,63.5958
87.9745,63.7040
86.2505,63.7040
86.2505,62.7183
88.9437,62.7183
88.9437,62.8303
88.9727,62.9385
88.9727,62.9385
88.9727,62.9385
89.0287,63.0356
89.1079,63.1148
89.2050,63.1708
89.3132,63.1998
89.3132,63.1998
89.3132,63.1998
89.4252,63.1998
89.4252,63.1998
89.5334,63.1708
89.6305,63.1148
89.7097,63.0356
89.7657,62.9385
89.7947,62.8303
89.7947,62.8303
89.7947,62.7183
89.7947,62.7183
89.7657,62.6101
89.7657,62.6101
89.7097,62.5130
89.6854,62.4887
89.6637,62.4364
89.6854,62.3841
89.7185,62.3649
89.7599,62.3538
89.8570,62.2978
89.9362,62.2186
89.9922,62.1215
90.0212,62.0133
90.0212,62.0133
90.0212,61.9013
90.0212,61.9013
90.0089,61.8555
89.9922,61.7931
89.9362,61.6960
89.8570,61.6168
89.7599,61.5608
89.7599,61.5608
89.6517,61.5318
89.6517,61.5318
89.5397,61.5318
89.5397,61.5318
89.4315,61.5608
89.4315,61.5608
89.3344,61.6168
89.2552,61.6960
89.1992,61.7931
89.1992,61.7931
89.1702,61.9013
89.1702,62.0133
89.1992,62.1215
89.1992,62.1215
89.2552,62.2186
89.2795,62.2429
89.3012,62.2952
89.2795,62.3475
89.2464,62.3667
89.2050,62.3778
89.2050,62.3778
89.1079,62.4338
89.0287,62.5130
88.9727,62.6101
88.9727,62.6101
88.9437,62.7183
86.2505,62.7183
86.2505,61.4030
88.0659,61.4030
88.0659,61.5150
88.0949,61.6232
88.0949,61.6232
88.1369,61.6960
88.1509,61.7203
88.2301,61.7995
88.3272,61.8555
88.4354,61.8845
88.4354,61.8845
88.4354,61.8845
88.5474,61.8845
88.5474,61.8845
88.6556,61.8555
88.7527,61.7995
88.8319,61.7203
88.8879,61.6232
88.9169,61.5150
88.9169,61.5150
88.9169,61.4030
88.9169,61.4030
88.8879,61.2948
88.8879,61.2948
88.8319,61.1977
88.7527,61.1185
88.7452,61.1142
88.6556,61.0625
88.6556,61.0625
88.5474,61.0335
88.5474,61.0335
88.4354,61.0335
88.4354,61.0335
88.3272,61.0625
88.3272,61.0625
88.2301,61.1185
88.1509,61.1977
88.0949,61.2948
88.0949,61.2948
88.0659,61.4030
86.2505,61.4030
86.2505,61.1502
86.2722,61.0979
86.3245,61.0762
86.3549,61.0844
86.3554,61.0833
86.3599,61.0852
86.3599,61.0852
86.4681,61.1142
86.4681,61.1142
86.4681,61.1142
86.5801,61.1142
86.5801,61.1142
86.6883,61.0852
86.7854,61.0292
86.8646,60.9500
86.9206,60.8529
86.9493,60.7457
87.1545,60.7457
87.1545,60.8577
87.1835,60.9659
87.1835,60.9659
87.2392,61.0625
87.2395,61.0630
87.3187,61.1422
87.4158,61.1982
87.5240,61.2272
87.5240,61.2272
87.5240,61.2272
87.6360,61.2272
87.6360,61.2272
87.7442,61.1982
87.8413,61.1422
87.9205,61.0630
87.9765,60.9659
88.0055,60.8577
88.0055,60.8577
88.0055,60.7457
88.0055,60.7457
87.9765,60.6375
87.9765,60.6375
87.9205,60.5404
87.9056,60.5255
87.8839,60.4732
87.9056,60.4209
87.9579,60.3992
87.9770,60.4017
87.9901,60.4052
88.1021,60.4052
88.1021,60.4052
88.2103,60.3762
88.3074,60.3202
88.3866,60.2410
88.4426,60.1439
88.4716,60.0357
88.4716,60.0357
88.4716,59.9237
88.4716,59.9237
88.4643,59.8965
88.4426,59.8155
88.3866,59.7184
88.3074,59.6392
88.2103,59.5832
88.2103,59.5832
88.1021,59.5542
88.1021,59.5542
87.9901,59.5542
87.9901,59.5542
87.8819,59.5832
87.8819,59.5832
87.7848,59.6392
87.7056,59.7184
87.6496,59.8155
87.6496,59.8155
87.6206,59.9237
87.6206,60.0357
87.6496,60.1439
87.6496,60.1439
87.7056,60.2410
87.7205,60.2559
87.7422,60.3082
87.7205,60.3605
87.6682,60.3822
87.6491,60.3797
87.6360,60.3762
87.5240,60.3762
87.5240,60.3762
87.4158,60.4052
87.4158,60.4052
87.3187,60.4612
87.2395,60.5404
87.1835,60.6375
87.1835,60.6375
87.1545,60.7457
86.9493,60.7457
86.9496,60.7447
86.9496,60.7447
86.9496,60.6327
86.9496,60.6327
86.9206,60.5245
86.9206,60.5245
86.8646,60.4274
86.7854,60.3482
86.7368,60.3202
86.6883,60.2922
86.6883,60.2922
86.5801,60.2632
86.5801,60.2632
86.4681,60.2632
86.4681,60.2632
86.3599,60.2922
86.3554,60.2941
86.3546,60.2922
86.3053,60.2986
86.2604,60.2642
86.2505,60.2272
86.2505,58.5584
86.2505,58.5584
86.2505,58.4502
86.2174,58.3702
86.2124,58.3581
86.2124,58.3581
86.1419,58.2876
86.1419,58.2876
85.6419,57.7876
85.6419,57.7876
85.5498,57.7495
79.5584,57.7495
79.5584,57.7495
79.5498,57.7495
79.4502,57.7495
79.3851,57.7765
79.3851,57.7765
79.3851,57.7765
79.3581,57.7876
79.2876,57.8581
78.8477,58.2980
78.7876,58.3581
78.7876,58.3581
78.7495,58.4502
75.2505,58.4502
75.2505,57.0765
84.2845,57.0765
84.2845,57.1885
84.3135,57.2967
84.3135,57.2967
84.3135,57.2967
84.3695,57.3938
84.4487,57.4730
84.5458,57.5290
84.6540,57.5580
84.6540,57.5580
84.6540,57.5580
84.7660,57.5580
84.7660,57.5580
84.8742,57.5290
84.9713,57.4730
85.0505,57.3938
85.1065,57.2967
85.1355,57.1885
85.1355,57.1885
85.1355,57.0765
85.1355,57.0765
85.1065,56.9683
85.0925,56.9440
89.0745,56.9440
89.0745,57.0560
89.1035,57.1642
89.1035,57.1642
89.1175,57.1885
89.1595,57.2613
89.2387,57.3405
89.3358,57.3965
89.4440,57.4255
89.4440,57.4255
89.4440,57.4255
89.5560,57.4255
89.5560,57.4255
89.6642,57.3965
89.7613,57.3405
89.8405,57.2613
89.8965,57.1642
89.9255,57.0560
89.9255,57.0560
89.9255,56.9440
89.9255,56.9440
89.8965,56.8358
89.8965,56.8358
89.8405,56.7387
89.7613,56.6595
89.6642,56.6035
89.6642,56.6035
89.5560,56.5745
89.5560,56.5745
89.4440,56.5745
89.4440,56.5745
89.3358,56.6035
89.3358,56.6035
89.2387,56.6595
89.1595,56.7387
89.1035,56.8358
89.1035,56.8358
89.0745,56.9440
85.0925,56.9440
85.0505,56.8712
84.9713,56.7920
84.8742,56.7360
84.8742,56.7360
84.7660,56.7070
84.7660,56.7070
84.6540,56.7070
84.6540,56.7070
84.5458,56.7360
84.5458,56.7360
84.4487,56.7920
84.3695,56.8712
84.3135,56.9683
84.3135,56.9683
84.2845,57.0765
75.2505,57.0765
75.2505,55.8609
79.2813,55.8609
79.2813,55.9729
79.3103,56.0811
79.3103,56.0811
79.3663,56.1782
79.4455,56.2574
79.5426,56.3134
79.6508,56.3424
79.6508,56.3424
79.6508,56.3424
79.7628,56.3424
79.7628,56.3424
79.8710,56.3134
79.9681,56.2574
80.0473,56.1782
80.0670,56.1440
82.6645,56.1440
82.6645,56.2560
82.6935,56.3642
82.6935,56.3642
82.6935,56.3642
82.7495,56.4613
82.8287,56.5405
82.9258,56.5965
83.0340,56.6255
83.0340,56.6255
83.0340,56.6255
83.1460,56.6255
83.1460,56.6255
83.2542,56.5965
83.3513,56.5405
83.4305,56.4613
83.4865,56.3642
83.5155,56.2560
83.5155,56.2560
83.5155,56.1440
83.5155,56.1440
85.0645,56.1440
85.0645,56.2560
85.0935,56.3642
85.0935,56.3642
85.0935,56.3642
85.1495,56.4613
85.2287,56.5405
85.3258,56.5965
85.4340,56.6255
85.4340,56.6255
85.4340,56.6255
85.5460,56.6255
85.5460,56.6255
85.6542,56.5965
85.7513,56.5405
85.8305,56.4613
85.8865,56.3642
85.9155,56.2560
85.9155,56.2560
85.9155,56.1440
85.9155,56.1440
85.8987,56.0811
85.8865,56.0358
85.8305,55.9387
85.7513,55.8595
85.6542,55.8035
85.6542,55.8035
85.5460,55.7745
85.5460,55.7745
85.4340,55.7745
85.4340,55.7745
85.3258,55.8035
85.3258,55.8035
85.2287,55.8595
85.1495,55.9387
85.0935,56.0358
85.0935,56.0358
85.0645,56.1440
83.5155,56.1440
83.4987,56.0811
83.4865,56.0358
83.4305,55.9387
83.3513,55.8595
83.2542,55.8035
83.2542,55.8035
83.1460,55.7745
83.1460,55.7745
83.0340,55.7745
83.0340,55.7745
82.9258,55.8035
82.9258,55.8035
82.8287,55.8595
82.7495,55.9387
82.6935,56.0358
82.6935,56.0358
82.6645,56.1440
80.0670,56.1440
80.0912,56.1021
80.0912,56.1021
80.1033,56.0811
80.1033,56.0811
80.1033,56.0811
80.1323,55.9729
80.1323,55.9729
80.1323,55.8609
80.1323,55.8609
80.1033,55.7527
80.1033,55.7527
80.0473,55.6556
79.9681,55.5764
79.9502,55.5661
79.8710,55.5204
79.8710,55.5204
79.7628,55.4914
79.7628,55.4914
79.6508,55.4914
79.6508,55.4914
79.5426,55.5204
79.5426,55.5204
79.4455,55.5764
79.3663,55.6556
79.3103,55.7527
79.3103,55.7527
79.2813,55.8609
75.2505,55.8609
75.2505,54.7940
82.9745,54.7940
82.9745,54.9060
83.0035,55.0142
83.0035,55.0142
83.0441,55.0846
83.0595,55.1113
83.1387,55.1905
83.2358,55.2465
83.3440,55.2755
83.3440,55.2755
83.3440,55.2755
83.4560,55.2755
83.4560,55.2755
83.5642,55.2465
83.6311,55.2079
83.6872,55.2005
83.7322,55.2350
83.7396,55.2528
83.7535,55.3048
83.7535,55.3048
83.7535,55.3048
83.8095,55.4019
83.8887,55.4811
83.9858,55.5371
84.0940,55.5661
84.0940,55.5661
84.0940,55.5661
84.2060,55.5661
84.2060,55.5661
84.3142,55.5371
84.4113,55.4811
84.4905,55.4019
84.5465,55.3048
84.5755,55.1966
84.5755,55.1966
84.5755,55.0846
84.5749,55.0798
84.5780,55.0794
84.5840,55.0329
84.6289,54.9984
84.6851,55.0057
84.7558,55.0465
84.8640,55.0755
84.8640,55.0755
84.8640,55.0755
84.9760,55.0755
84.9760,55.0755
85.0842,55.0465
85.1813,54.9905
85.2605,54.9113
85.3165,54.8142
85.3455,54.7060
85.3455,54.7060
85.3455,54.5940
85.3455,54.5940
85.3441,54.5887
85.3165,54.4858
85.2605,54.3887
85.1813,54.3095
85.0842,54.2535
85.0842,54.2535
84.9760,54.2245
84.9760,54.2245
84.8640,54.2245
84.8640,54.2245
84.7558,54.2535
84.7558,54.2535
84.6587,54.3095
84.5795,54.3887
84.5235,54.4858
84.5235,54.4858
84.4945,54.5940
84.4945,54.7060
84.4951,54.7108
84.4921,54.7112
84.4859,54.7579
84.4409,54.7923
84.3848,54.7849
84.3142,54.7441
84.3142,54.7441
84.2060,54.7151
84.2060,54.7151
84.0940,54.7151
84.0940,54.7151
83.9858,54.7441
83.9858,54.7441
83.9189,54.7827
83.8628,54.7901
83.8178,54.7556
83.8104,54.7378
83.7965,54.6858
83.7405,54.5887
83.6613,54.5095
83.6201,54.4858
83.5642,54.4535
83.5642,54.4535
83.4560,54.4245
83.4560,54.4245
83.3440,54.4245
83.3440,54.4245
83.2358,54.4535
83.2358,54.4535
83.1387,54.5095
83.0595,54.5887
83.0035,54.6858
83.0035,54.6858
82.9745,54.7940
75.2505,54.7940
75.2505,53.9440
79.8945,53.9440
79.8945,54.0560
79.9235,54.1642
79.9235,54.1642
79.9235,54.1642
79.9795,54.2613
80.0587,54.3405
80.1558,54.3965
80.2640,54.4255
80.2640,54.4255
80.2640,54.4255
80.3760,54.4255
80.3760,54.4255
80.4842,54.3965
80.5813,54.3405
80.6605,54.2613
80.7165,54.1642
80.7455,54.0560
80.7455,54.0560
80.7455,53.9440
80.7455,53.9440
80.7165,53.8358
80.7165,53.8358
80.6605,53.7387
80.5813,53.6595
80.4842,53.6035
80.4842,53.6035
80.3760,53.5745
80.3760,53.5745
80.2640,53.5745
80.2640,53.5745
80.1558,53.6035
80.1558,53.6035
80.0587,53.6595
79.9795,53.7387
79.9235,53.8358
79.9235,53.8358
79.8945,53.9440
75.2505,53.9440
75.2505,53.0440
81.9745,53.0440
81.9745,53.1560
82.0035,53.2642
82.0035,53.2642
82.0035,53.2642
82.0595,53.3613
82.1387,53.4405
82.2358,53.4965
82.3440,53.5255
82.3440,53.5255
82.3440,53.5255
82.4560,53.5255
82.4560,53.5255
82.5642,53.4965
82.6613,53.4405
82.7405,53.3613
82.7965,53.2642
82.8255,53.1560
82.8255,53.1560
82.8255,53.0440
82.8255,53.0440
82.7965,52.9358
82.7965,52.9358
82.7405,52.8387
82.6613,52.7595
82.6342,52.7439
82.5642,52.7035
82.5642,52.7035
82.4560,52.6745
82.4560,52.6745
82.3440,52.6745
82.3440,52.6745
82.2358,52.7035
82.2358,52.7035
82.1387,52.7595
82.0595,52.8387
82.0035,52.9358
82.0035,52.9358
81.9745,53.0440
75.2505,53.0440
75.2505,52.3474
85.6145,52.3474
85.6145,52.4594
85.6435,52.5676
85.6435,52.5676
85.6435,52.5676
85.6995,52.6647
85.7787,52.7439
85.8758,52.7999
85.9840,52.8289
85.9840,52.8289
85.9840,52.8289
86.0960,52.8289
86.0960,52.8289
86.2042,52.7999
86.3013,52.7439
86.3805,52.6647
86.4365,52.5676
86.4655,52.4594
86.4655,52.4594
86.4655,52.4127
88.1058,52.4127
88.1058,52.5247
88.1348,52.6329
88.1348,52.6329
88.1348,52.6329
88.1908,52.7300
88.2700,52.8092
88.3671,52.8652
88.4753,52.8942
88.4753,52.8942
88.4753,52.8942
88.5873,52.8942
88.5873,52.8942
88.6955,52.8652
88.7926,52.8092
88.8718,52.7300
88.9278,52.6329
88.9568,52.5247
88.9568,52.5247
88.9568,52.4127
88.9568,52.4127
88.9278,52.3045
88.9278,52.3045
88.8718,52.2074
88.7926,52.1282
88.6955,52.0722
88.6955,52.0722
88.5873,52.0432
88.5873,52.0432
88.4753,52.0432
88.4753,52.0432
88.3671,52.0722
88.3671,52.0722
88.2700,52.1282
88.1908,52.2074
88.1348,52.3045
88.1348,52.3045
88.1058,52.4127
86.4655,52.4127
86.4655,52.3474
86.4655,52.3474
86.4540,52.3045
86.4365,52.2392
86.3805,52.1421
86.3013,52.0629
86.2671,52.0432
86.2042,52.0069
86.2042,52.0069
86.0960,51.9779
86.0960,51.9779
85.9840,51.9779
85.9840,51.9779
85.8758,52.0069
85.8758,52.0069
85.7787,52.0629
85.6995,52.1421
85.6435,52.2392
85.6435,52.2392
85.6145,52.3474
75.2505,52.3474
75.2505,50.3940
80.5345,50.3940
80.5345,50.5060
80.5635,50.6142
80.5635,50.6142
80.5696,50.6247
80.6195,50.7113
80.6987,50.7905
80.7958,50.8465
80.9040,50.8755
80.9040,50.8755
80.9040,50.8755
81.0160,50.8755
81.0160,50.8755
81.1242,50.8465
81.2213,50.7905
81.3005,50.7113
81.3263,50.6666
84.3445,50.6666
84.3445,50.7786
84.3735,50.8868
84.3735,50.8868
84.3735,50.8868
84.4295,50.9839
84.5087,51.0631
84.6058,51.1191
84.7140,51.1481
84.7140,51.1481
84.7140,51.1481
84.8260,51.1481
84.8260,51.1481
84.9342,51.1191
85.0313,51.0631
85.1105,50.9839
85.1665,50.8868
85.1955,50.7786
85.1955,50.7786
85.1955,50.6666
85.1955,50.6666
85.1665,50.5584
85.1665,50.5584
85.1105,50.4613
85.0313,50.3821
84.9342,50.3261
84.9342,50.3261
84.8260,50.2971
84.8260,50.2971
84.7140,50.2971
84.7140,50.2971
84.6058,50.3261
84.6058,50.3261
84.5087,50.3821
84.4295,50.4613
84.3735,50.5584
84.3735,50.5584
84.3445,50.6666
81.3263,50.6666
81.3504,50.6247
81.3504,50.6247
81.3565,50.6142
81.3565,50.6142
81.3565,50.6142
81.3855,50.5060
81.3855,50.5060
81.3855,50.3940
81.3855,50.3940
81.3565,50.2858
81.3565,50.2858
81.3005,50.1887
81.2213,50.1095
81.1242,50.0535
81.1242,50.0535
81.0160,50.0245
81.0160,50.0245
80.9040,50.0245
80.9040,50.0245
80.7958,50.0535
80.7958,50.0535
80.6987,50.1095
80.6195,50.1887
80.5635,50.2858
80.5635,50.2858
80.5345,50.3940
75.2505,50.3940
75.2505,48.8344
75.2722,48.7821
75.7821,48.2722
75.8344,48.2505
91.1656,48.2505
Z" /> 
</g>
<g style="fill:none; 
stroke:#D0D2CD; stroke-width:0.0500; stroke-opacity:1; 
stroke-linecap:round; stroke-linejoin:round;">
<path d="M75.0000 48.7000
L75.7000 48.0000
" />
<path d="M75.0000 82.3000
L75.0000 48.7000
" />
<path d="M75.7000 48.0000
L91.3000 48.0000
" />
<path d="M75.7000 83.0000
L75.0000 82.3000
" />
<path d="M79.0000 58.5000
L79.5000 58.0000
" />
<path d="M79.0000 72.5000
L79.0000 58.5000
" />
<path d="M79.5000 58.0000
L85.5000 58.0000
" />
<path d="M79.5000 73.0000
L79.0000 72.5000
" />
<path d="M85.5000 58.0000
L86.0000 58.5000
" />
<path d="M85.5000 73.0000
L79.5000 73.0000
" />
<path d="M86.0000 58.5000
L86.0000 72.5000
" />
<path d="M86.0000 72.5000
L85.5000 73.0000
" />
<path d="M91.3000 48.0000
L92.0000 48.7000
" />
<path d="M91.3000 83.0000
L75.7000 83.0000
" />
<path d="M92.0000 48.7000
L92.0000 82.3000
" />
<path d="M92.0000 82.3000
L91.3000 83.0000
" />
</g>
<g style="fill:#FFFFFF; fill-opacity:1.0000; stroke:none;">
<circle cx="85.4900" cy="56.2000" r="0.1000" /> 
<circle cx="83.4000" cy="54.8500" r="0.1000" /> 
<circle cx="80.3200" cy="54.0000" r="0.1000" /> 
<circle cx="83.0900" cy="56.2000" r="0.1000" /> 
<circle cx="89.5000" cy="57.0000" r="0.1000" /> 
<circle cx="81.7900" cy="74.4500" r="0.1000" /> 
<circle cx="80.9600" cy="50.4500" r="0.1000" /> 
<circle cx="84.9200" cy="54.6500" r="0.1000" /> 
<circle cx="87.7500" cy="66.3600" r="0.1000" /> 
<circle cx="80.6875" cy="80.2750" r="0.1000" /> 
<circle cx="86.5200" cy="75.3000" r="0.1000" /> 
<circle cx="88.4000" cy="63.7600" r="0.1000" /> 
<circle cx="89.2000" cy="80.3000" r="0.1000" /> 
<circle cx="89.2000" cy="77.1000" r="0.1000" /> 
<circle cx="77.5000" cy="59.5000" r="0.1000" /> 
<circle cx="86.5241" cy="60.6887" r="0.1000" /> 
<circle cx="80.9152" cy="76.9636" r="0.1000" /> 
<circle cx="88.4914" cy="61.4590" r="0.1000" /> 
<circle cx="88.0461" cy="59.9797" r="0.1000" /> 
<circle cx="83.5968" cy="76.2906" r="0.1000" /> 
<circle cx="91.1000" cy="77.1000" r="0.1000" /> 
<circle cx="82.2300" cy="50.4500" r="0.1000" /> 
<circle cx="77.5000" cy="61.5000" r="0.1000" /> 
<circle cx="91.1000" cy="80.3000" r="0.1000" /> 
<circle cx="86.4800" cy="54.0000" r="0.1000" /> 
<circle cx="90.5500" cy="53.5000" r="0.1000" /> 
<circle cx="81.8800" cy="54.6500" r="0.1000" /> 
<circle cx="80.6875" cy="78.9750" r="0.1000" /> 
<circle cx="78.0500" cy="53.5000" r="0.1000" /> 
<circle cx="88.6800" cy="75.3000" r="0.1000" /> 
<circle cx="84.4800" cy="52.5000" r="0.1000" /> 
<circle cx="89.4000" cy="64.7700" r="0.1000" /> 
<circle cx="89.5000" cy="59.0000" r="0.1000" /> 
<circle cx="84.2500" cy="54.0000" r="0.1000" /> 
<circle cx="81.4518" cy="74.9828" r="0.1000" /> 
<circle cx="84.7700" cy="50.7226" r="0.1000" /> 
<circle cx="77.3596" cy="70.5252" r="0.1000" /> 
<circle cx="77.5368" cy="64.0424" r="0.1000" /> 
<circle cx="86.0400" cy="52.4034" r="0.1000" /> 
<circle cx="78.6565" cy="73.8418" r="0.1000" /> 
<circle cx="77.8170" cy="65.7096" r="0.1000" /> 
<circle cx="89.5957" cy="61.9573" r="0.1000" /> 
<circle cx="89.3692" cy="62.7743" r="0.1000" /> 
<circle cx="79.7068" cy="55.9169" r="0.1000" /> 
<circle cx="86.7592" cy="74.5117" r="0.1000" /> 
<circle cx="85.3144" cy="74.2364" r="0.1000" /> 
<circle cx="90.1829" cy="69.6998" r="0.1000" /> 
<circle cx="77.9908" cy="72.0934" r="0.1000" /> 
<circle cx="82.4000" cy="53.1000" r="0.1000" /> 
<circle cx="84.7100" cy="57.1325" r="0.1000" /> 
<circle cx="77.1814" cy="71.5236" r="0.1000" /> 
<circle cx="88.7017" cy="71.9087" r="0.1000" /> 
<circle cx="87.5800" cy="60.8017" r="0.1000" /> 
<circle cx="90.6525" cy="68.1869" r="0.1000" /> 
<circle cx="84.1500" cy="55.1406" r="0.1000" /> 
<circle cx="88.5313" cy="52.4687" r="0.1000" /> 
<circle cx="89.4549" cy="65.8957" r="0.1000" /> 
<circle cx="80.7368" cy="76.0467" r="0.1000" /> 
<circle cx="84.2898" cy="73.8611" r="0.1000" /> 
</g> 
</svg>
